<?xml version="1.0" encoding="utf-8"?>
<!-- Generator: Adobe Illustrator 27.5.0, SVG Export Plug-In . SVG Version: 6.00 Build 0)  -->
<svg version="1.1" id="Layer_1" xmlns="http://www.w3.org/2000/svg" xmlns:xlink="http://www.w3.org/1999/xlink" x="0px" y="0px"
	 viewBox="0 0 4000 4000" style="enable-background:new 0 0 4000 4000;" xml:space="preserve">
<g>
	<g>
		<rect x="0.5" y="0.5" style="fill:#FFFFFF;" width="3999" height="3999"/>
		<path d="M3999,1v3998H1V1H3999 M4000,0H0v4000h4000V0L4000,0z"/>
	</g>
</g>
<g>
	<path style="fill-rule:evenodd;clip-rule:evenodd;" d="M1641.909,2588.608c0,0-1.411-14.12-25.419-28.243
		c0,0-12.673-141.737,3.616-219.105c-20.14,8-25.896,37.264-25.896,37.264c0.707-48.721,50.293-72.117,50.293-72.117
		c4.377,29.975,6.84,59.37,5.872,85.203L1641.909,2588.608z M1524.247,1360.106c15.811-26.196,23.457-61.258,8.213-106.73
		c0,0-16.682-0.711-32.178,0.386c-26.081,20.024-63.896,44.07-63.896,44.07c17.3-14.475,46.647-41.633,46.647-41.633
		c120.819-84.649,103.223-220.91,113.684-353.752c-12.487,41.472-32.553,188.752-61.264,224.194
		c6.532,7.9,16.003,13.391,16.003,13.391c-7.283,0.154-16.188-3.06-23.888-6.717l-0.049,0.026l-0.533-0.304
		c-9.568-4.607-17.132-9.789-17.132-9.789l0.001-0.001l-2.106-1.203c0,0,33.485-200.587-35.15-282.948
		c16.936,91.255,25.5,143.821,5.643,232.56l0.001,0.004c0,0-7.629,43.303-16.454,50.011c0,0,1.863-10.182,2.347-21.561
		c-23.805-3.251-105.483-19.836-185.161-99.516c0,0,18.358,94.617,225.951,172.288c0,0-92.665,106.566-157.356,140.308
		c15.586,6.674,24.537,12.9,24.537,12.9c-20.156-6.951-80.474-3.642-82.354-3.536l-0.045,0.002
		c-6.15,0.489-12.571,1.147-18.89,2.028c0,0-31.104,5.391-47.345,14.57c0,0,12.965-9.693,27.808-18.467
		c-0.005-15.535,1.63-52.065,15.69-80.725c0,0,14.828-24.008,2.825-72.022c0,0-7.061,53.663-26.831,67.785
		c0,0-22.178-46.763-41.036-73.366c2.116,16.642,6.014,29.924,6.014,29.924c-13.381-15.873-19.284-36.763-21.581-55.953
		c-1.575-8.33-2.499-21.533-0.361-41.695c0.615-6.574,1.316-10.562,1.323-10.602c2.071-14.488,5.575-31.995,11.155-53.075
		l41.293-136.786h-4.838c-20.33,31.297-70.275,115.742-85.884,211.631c0,0-29.97-2.925-49.414-15.609
		c4.46,13.273,14.045,21.24,14.045,21.24c-22.846-10.281-28.462-28.977-29.58-40.893l-0.012-0.042l0.001-0.072
		c-0.59-6.436,0.126-10.867,0.126-10.867l1.924-165.388h-7.647l-21.234,167.853c0,0-122.584-12.675-46.603-111.563
		c0,0-77.671,45.191-35.305,107.327c0,0,40.954,48.016,114.389,72.022c0,0,151.811,88.263,107.327,190.647
		c0,0-92.499-84.027-155.341-78.378c0,0-16.239,39.542,38.836,114.388c0,0,28.537,38.042,64.335,42.133
		c9.189-22.078,24.232-34.748,24.232-34.748c-13.681,13.133-20.863,61.973-17.957,81.584c0,0-25.166,53.229-48.468,71.588
		c-30.595,23.348-59.966,31.215-53.208,66.102c0,0,8.474,104.503,117.919,45.897c0,0,14.664-4.368,32.183-8.337
		c0,0,12.184-4.537,31.609-5.635c8.414-0.921,15.791-1.033,20.649,0.262c19.129,1.549,41.993,7.043,65.948,20.77
		c0,0-33.247-11.615-59.585-4.737c17.902,50.02,80.496,206.201,185.643,275.347c0.632-64.154,17.975-106.096,17.975-106.096
		c-15.238,81.734,16.513,172.969,17.727,176.412c17.106,41.485,50.397,94.069,113.638,120.544
		c13.68,5.738,28.761,10.234,45.384,13.139c-0.02,0.001-23.697,0.953-41.467-1.125c3.596,11.275,9.322,29.823,15.719,52.777
		l32.165-20.802c-8.455,9.697-18.314,21.476-28.406,34.531c-33.58,43.439-69.715,100.983-65.068,142.808
		c0,0,0,216.064-12.71,245.721c0,0,2.824,36.718,31.068,76.26c0,0,8.511,46.812,32.068,61.519c0,0,26.81,11.896,42.697-29.41
		c0,0-0.927,52.072-53.394,44.773c-4.228,8.384-6.47,18.451,1.217,25.461h101.679c0,0,44.677-301.55,64.334-495.214l-76.749,32.211
		c23.281-16.605,51.409-37.083,79.317-58.426c43.152-33,85.773-68.06,109.131-94.038c39.709-51.345,42.903-137.236,97.559-165.1
		c-47.118,67.084-26.874,93.069-50.754,156.852c50.583,2.209,142.182,1.934,213.843-22.094c16.603-5.567,32.133-12.408,45.836-20.79
		c-20.375-147.786,53.74-221.295,53.74-221.295c-55.076,80.495-33.51,206.548-33.51,206.548
		c-8.65,20.963-35.834,40.154-54.034,51.131c14.521,18.15,41.175,49.509,74.366,79.739l-6.938-65.603
		c5.056,22.905,11.296,49.473,18.288,75.666c9.184,34.403,19.663,68.152,30.455,92.08c0,0,26.785,49.758,16.9,149.317
		c0,0-1.401-53.894-14.03-87.927c-0.24,74.521-12.848,202.342-86.191,300.132c0,0,52.251,11.297,73.434,0
		c0,0,97.442-160.991,94.618-364.346c0,0,0.463-8.337,1.84-22.125c0,0,66.431,172.711,69.302,281.136
		c18.033-21.531,18.481-56.038,18.481-56.038c7.06,55.076-19.023,80.175-19.023,80.175s-35.305,40.953-15.534,45.19l83.319-8.473
		c0,0-56.488-394.003-52.251-426.484c0,0-21.04-28.172-32.255-59.476c-17.104,27.26-34.253,57.999-42.273,82.597
		c32.594-148.314,118.002-232.395,127.98-366.627c16.185-217.699-226.309-286.572-518.228-249.555
		c46.717,34.823,76.42,73.366,76.42,73.366c-74.043-64.62-167.697-83.143-176.281-84.732
		c-48.869-8.675-124.974-16.678-228.844-11.937c21.397,26.186,66.841,40.172,66.841,40.172
		c-36.288,1.209-72.328-16.974-101.682-38.161l-0.63,0.043l-2.388-2.247c-37.567-27.795-63.445-59.713-63.445-59.713l-83.424-78.517
		c-37.027,2.415-68.269,0.286-68.269,0.286C1477.081,1412.605,1512.029,1378,1524.247,1360.106z"/>
	<g>
		<g>
			<text transform="matrix(1 0 0 1 925.2988 3057.0898)" style="fill:#231916; font-family:'NexaBold'; font-size:334.125px;">SILHOUE</text>
		</g>
	</g>
	<g>
		<g>
			<text transform="matrix(1 0 0 1 2404.4688 3057.0898)" style="fill:#231916; font-family:'NexaBold'; font-size:334.125px;">TTE</text>
		</g>
	</g>
</g>
</svg>
